<?xml version="1.0" standalone="no"?>
<!DOCTYPE svg PUBLIC "-//W3C//DTD SVG 20010904//EN"
 "http://www.w3.org/TR/2001/REC-SVG-20010904/DTD/svg10.dtd">
<svg version="1.0" xmlns="http://www.w3.org/2000/svg"
 width="300.000000pt" height="274.000000pt" viewBox="0 0 300.000000 274.000000"
 preserveAspectRatio="xMidYMid meet">
<metadata>
Created by potrace 1.10, written by Peter Selinger 2001-2011
</metadata>
<g transform="translate(0.000000,274.000000) scale(0.100000,-0.100000)"
fill="#252faa" stroke="none">
<path d="M1298 2096 c-163 -29 -284 -88 -397 -192 -292 -270 -336 -717 -101
-1034 62 -83 120 -138 207 -193 142 -91 249 -121 428 -121 140 0 224 16 319
60 57 27 63 24 92 -44 21 -48 34 -30 34 49 0 40 4 69 10 69 21 0 171 155 213
219 227 348 141 804 -198 1046 -174 125 -401 177 -607 141z m342 -39 c198 -55
359 -177 461 -347 144 -243 136 -556 -20 -796 -42 -64 -186 -208 -200 -199 -5
3 -5 20 1 38 8 26 7 48 -5 93 -9 32 -16 51 -16 41 -1 -13 -7 -17 -23 -15 -19
2 -24 10 -26 47 -4 60 13 75 33 28 14 -35 31 -54 19 -22 -13 33 15 12 57 -45
24 -32 47 -59 52 -60 16 0 6 24 -24 57 -16 19 -28 37 -26 39 2 2 25 -4 50 -13
64 -24 77 -9 37 42 -40 51 -38 59 10 35 47 -24 83 -28 60 -7 -17 16 -116 57
-136 57 -19 0 -18 -25 1 -40 9 -7 26 -27 37 -43 l22 -30 -27 7 c-14 3 -39 11
-54 18 -15 6 -37 12 -48 12 -32 1 -30 41 4 94 103 161 115 342 34 512 -39 82
-127 178 -205 223 -153 90 -375 96 -528 16 -209 -110 -317 -354 -261 -589 33
-134 148 -282 263 -335 44 -21 83 -62 101 -107 4 -11 17 -18 34 -18 37 0 56
-13 51 -36 -3 -16 -11 -18 -52 -16 -33 3 -46 0 -42 -7 4 -6 13 -11 21 -11 32
0 65 -20 58 -35 -5 -14 -15 -15 -57 -10 -66 9 -51 -11 17 -24 55 -10 61 -5 72
72 4 28 12 47 20 47 19 0 45 -45 45 -79 0 -38 27 -54 76 -45 34 6 35 8 32 43
-3 32 0 36 23 39 22 3 29 -2 37 -27 14 -40 36 -41 27 -2 -7 32 -4 36 42 45 27
6 32 4 35 -14 2 -11 7 -19 13 -18 5 2 9 5 8 8 -1 3 -5 13 -8 23 -5 13 -2 17
13 17 27 0 52 -57 31 -71 -64 -41 -232 -79 -349 -79 -94 0 -248 37 -338 81
-234 115 -401 365 -418 629 -21 311 141 591 424 734 135 68 379 88 542 43z
m-69 -243 c82 -24 168 -76 231 -141 122 -126 167 -306 119 -476 -24 -82 -70
-161 -97 -165 -13 -2 -24 -15 -30 -34 -9 -32 -84 -96 -114 -97 -15 -1 -70 76
-70 98 0 28 -55 137 -120 237 -70 110 -83 138 -55 128 8 -4 26 -3 40 0 20 5
25 13 25 37 0 39 -14 65 -58 111 -32 34 -34 40 -24 63 15 32 16 65 2 65 -5 0
-10 -8 -10 -18 0 -10 -7 -28 -16 -40 -15 -21 -13 -25 31 -75 47 -54 62 -85 51
-113 -6 -16 -34 -16 -78 1 -34 13 -18 -22 71 -158 49 -75 94 -151 100 -169 11
-32 10 -32 -26 12 -56 67 -112 120 -129 120 -20 0 -30 -29 -16 -49 6 -9 24
-38 41 -66 43 -74 113 -138 149 -137 22 0 33 -7 46 -30 21 -35 17 -41 -49 -61
-84 -26 -117 -28 -223 -12 -125 19 -190 48 -271 121 -198 180 -218 491 -44
699 51 61 129 114 211 142 83 28 229 31 313 7z m-90 -692 c69 -74 113 -138
104 -151 -10 -17 -62 28 -115 99 -84 115 -77 148 11 52z m309 -210 c0 -16 -8
-37 -19 -46 -10 -9 -24 -37 -31 -62 -14 -50 -19 -52 -45 -24 -34 37 -100 14
-100 -35 0 -39 -36 -43 -45 -5 -5 21 -11 25 -41 22 -19 -2 -46 -7 -60 -13 -21
-8 -36 -6 -79 15 -30 14 -55 24 -58 22 -2 -2 -13 5 -24 16 -11 11 -18 22 -15
24 3 3 58 -2 123 -10 65 -9 120 -13 123 -8 3 4 38 17 76 30 l70 22 33 -37 34
-38 -24 44 c-22 42 -22 44 -4 55 10 6 31 21 45 33 34 29 41 29 41 -5z m59 -76
c7 -8 11 -32 9 -53 -3 -35 -6 -38 -35 -41 -44 -4 -42 -22 2 -22 40 0 48 -22
15 -40 -22 -12 -40 -6 -40 12 0 7 -10 22 -21 34 l-21 23 23 50 c23 52 46 64
68 37z m-169 -65 c0 -5 -6 -12 -12 -14 -8 -3 -6 -6 5 -6 37 -2 2 -41 -37 -41
-19 0 -21 35 -3 55 13 16 47 20 47 6z m-152 -38 c2 -8 -5 -13 -17 -13 -21 0
-35 13 -24 24 10 10 36 3 41 -11z m-18 -33 c0 -10 -37 -20 -44 -12 -15 15 -4
29 19 24 14 -2 25 -8 25 -12z m30 -50 c0 -23 -45 -39 -62 -22 -16 16 -3 40 24
44 30 5 38 1 38 -22z m320 -21 c0 -27 -2 -30 -15 -19 -8 7 -15 21 -15 31 0 11
7 19 15 19 10 0 15 -10 15 -31z"/>
<path d="M1367 2053 c-3 -5 -8 -29 -12 -55 -4 -27 -11 -48 -16 -48 -5 0 -22
20 -37 45 -15 25 -33 45 -39 45 -19 0 -17 -6 22 -70 52 -86 61 -90 75 -38 6
24 15 59 21 78 11 44 11 50 0 50 -6 0 -12 -3 -14 -7z"/>
<path d="M1426 2051 c-4 -5 4 -11 16 -13 21 -3 23 -9 26 -65 2 -50 6 -63 19
-63 12 0 15 8 11 33 -7 46 5 92 22 92 8 0 16 5 18 10 3 13 -104 19 -112 6z"/>
<path d="M1123 1994 l-32 -14 15 -37 c9 -21 22 -53 30 -72 18 -43 41 -30 24
13 -9 25 -7 28 25 42 26 10 35 20 35 37 0 46 -36 58 -97 31z m74 -21 c2 -6 -8
-20 -23 -29 -25 -17 -27 -17 -41 1 -12 17 -12 21 4 33 21 15 55 12 60 -5z"/>
<path d="M1683 1936 c-18 -35 -29 -67 -25 -71 9 -8 71 -35 83 -35 20 0 7 18
-21 30 -35 15 -36 19 -10 70 21 41 26 70 12 70 -4 0 -22 -29 -39 -64z"/>
<path d="M1816 1943 c-4 -4 3 -15 16 -24 l22 -17 -37 -45 c-20 -25 -37 -50
-37 -56 0 -23 21 -9 52 34 28 39 37 45 61 40 38 -6 34 9 -10 36 -21 13 -43 27
-49 31 -6 4 -14 4 -18 1z"/>
<path d="M1376 1913 c-9 -9 -7 -33 3 -33 12 0 22 28 12 34 -5 3 -11 3 -15 -1z"/>
<path d="M1540 1904 c0 -9 5 -14 12 -12 18 6 21 28 4 28 -9 0 -16 -7 -16 -16z"/>
<path d="M931 1869 c-25 -27 -27 -52 -6 -69 13 -10 23 -9 56 5 30 14 43 15 51
7 16 -16 -19 -53 -46 -50 -12 2 -22 -1 -24 -7 -1 -5 9 -11 24 -13 35 -5 76 34
72 68 -3 22 -7 25 -38 23 -19 0 -47 -4 -62 -8 -16 -4 -28 -3 -28 1 0 18 19 37
37 39 26 2 32 19 6 23 -12 2 -30 -6 -42 -19z"/>
<path d="M1899 1791 l-54 -49 30 -30 c42 -42 65 -46 106 -19 47 31 52 78 13
118 -15 16 -31 29 -34 29 -3 0 -31 -22 -61 -49z m96 -22 c5 -14 0 -28 -16 -45
-27 -29 -60 -31 -83 -5 -17 19 -16 21 21 54 41 38 65 37 78 -4z"/>
<path d="M840 1767 c0 -7 16 -21 35 -30 50 -24 43 -37 -17 -37 -86 0 -89 -12
-19 -59 69 -46 71 -46 71 -28 0 7 -16 21 -35 31 -19 11 -35 23 -35 28 0 4 27
8 59 8 33 0 62 4 66 9 5 9 -104 91 -119 91 -4 0 -6 -6 -6 -13z"/>
<path d="M1947 1624 c-8 -8 1 -24 14 -24 5 0 9 7 9 15 0 15 -12 20 -23 9z"/>
<path d="M762 1594 c-35 -24 -45 -59 -27 -93 35 -68 145 -50 145 23 0 59 -73
102 -118 70z m80 -31 c36 -32 17 -83 -32 -83 -50 0 -79 43 -54 79 18 25 60 28
86 4z"/>
<path d="M700 1411 c0 -5 10 -11 23 -15 34 -9 127 -7 127 3 0 4 -24 11 -52 15
-73 8 -98 8 -98 -3z"/>
<path d="M2054 1368 c1 -17 -5 -24 -21 -26 -25 -4 -32 -22 -8 -22 17 0 34 -29
28 -47 -7 -19 15 -16 25 4 7 12 17 14 41 10 35 -7 38 -2 14 26 -17 18 -17 19
0 32 25 18 21 27 -11 20 -20 -4 -33 -1 -42 10 -18 21 -27 19 -26 -7z"/>
<path d="M700 1300 c0 -58 15 -84 22 -37 3 20 9 22 66 25 44 2 62 7 59 15 -2
8 -24 11 -65 8 -61 -3 -62 -3 -62 23 0 14 -4 26 -10 26 -6 0 -10 -27 -10 -60z"/>
<path d="M768 1194 c-55 -17 -68 -41 -15 -29 17 5 48 8 67 9 30 1 36 -3 38
-23 4 -28 -8 -37 -65 -52 -24 -6 -43 -15 -43 -20 0 -24 104 3 124 32 15 23 11
55 -12 82 -18 20 -31 20 -94 1z"/>
<path d="M890 1075 c0 -3 7 -17 16 -30 19 -30 15 -38 -42 -71 -41 -24 -57 -44
-34 -44 13 0 120 71 120 79 0 14 -40 71 -50 71 -5 0 -10 -2 -10 -5z"/>
<path d="M915 925 c-31 -30 -33 -77 -5 -105 45 -45 130 -8 130 56 0 69 -76 99
-125 49z m93 -7 c20 -20 14 -65 -10 -82 -46 -33 -96 -10 -84 38 12 49 65 73
94 44z"/>
<path d="M1076 828 c-17 -24 -8 -49 27 -81 15 -12 17 -21 10 -28 -17 -17 -48
-6 -51 19 -4 24 -32 31 -32 7 0 -23 37 -55 63 -55 50 0 62 43 22 80 -27 25
-32 45 -15 55 17 10 60 -23 60 -45 0 -11 5 -20 10 -20 21 0 9 49 -16 69 -34
27 -59 27 -78 -1z"/>
<path d="M1397 863 c20 -15 52 -17 72 -4 9 6 -3 10 -38 12 -43 3 -49 2 -34 -8z"/>
</g>
</svg>
