 <svg  version="1.0" xmlns="http://www.w3.org/2000/svg"  width="300.000000pt" height="294.000000pt" viewBox="0 0 300.000000 294.000000"  preserveAspectRatio="xMidYMid meet">  <g transform="translate(0.000000,294.000000) scale(0.100000,-0.100000)" fill="#08159e" stroke="none"> <path d="M1265 2905 c-33 -7 -85 -16 -115 -20 -206 -28 -527 -198 -703 -373 -188 -187 -324 -430 -397 -707 -39 -149 -51 -432 -25 -560 8 -38 15 -80 15 -92 0 -74 134 -388 211 -493 22 -30 51 -71 64 -90 42 -65 219 -237 305 -297 228 -159 447 -239 725 -264 278 -24 545 15 753 112 46 22 88 39 92 39 5 0 30 -36 56 -80 71 -120 78 -113 75 76 l-2 82 78 55 c84 59 255 231 316 318 131 187 193 327 246 559 19 80 22 125 22 285 0 163 -4 207 -25 310 -14 66 -32 137 -41 158 -8 20 -13 37 -10 37 8 0 -105 221 -121 237 -8 8 -14 18 -14 23 0 5 -14 29 -30 52 -17 24 -41 59 -54 78 -24 35 -196 203 -258 251 -159 124 -350 219 -548 273 -153 41 -489 59 -615 31z m461 -36 c135 -24 304 -79 429 -141 181 -89 380 -254 508 -421 132 -172 243 -427 262 -602 3 -27 8 -66 11 -86 24 -158 -9 -517 -55 -594 -3 -5 -7 -18 -8 -29 -5 -30 -143 -306 -153 -306 -6 0 -16 -15 -24 -32 -36 -84 -312 -358 -360 -358 -21 0 -21 48 0 78 21 30 20 91 -1 132 -16 31 -22 61 -24 113 -1 28 -19 20 -23 -11 -2 -22 -7 -26 -28 -24 -14 2 -36 10 -48 19 -23 14 -24 18 -17 91 8 92 19 119 41 101 19 -15 39 -62 48 -111 4 -21 11 -38 16 -38 12 0 12 7 1 48 -7 24 -6 32 3 32 12 0 49 -44 152 -176 39 -49 64 -59 64 -26 0 10 -25 43 -54 74 -85 91 -84 110 3 71 99 -44 128 -52 140 -40 21 21 11 48 -44 114 -30 37 -55 70 -55 74 0 21 27 16 104 -23 68 -33 88 -40 98 -30 18 18 -4 34 -82 62 -36 13 -87 34 -114 47 -56 28 -97 25 -89 -7 3 -11 34 -53 69 -94 35 -42 64 -77 64 -80 0 -13 -36 -14 -63 -1 -62 28 -144 55 -163 54 -47 -5 -52 0 -59 52 -6 42 -4 54 12 72 123 141 212 416 200 621 -7 120 -25 234 -43 270 -8 16 -14 34 -14 40 0 25 -73 163 -125 235 -51 72 -123 143 -225 221 -25 19 -47 37 -50 41 -8 10 -182 90 -206 95 -12 2 -53 14 -90 26 -59 18 -94 21 -244 22 -161 1 -184 -1 -284 -27 -180 -47 -286 -109 -431 -252 -101 -100 -185 -226 -215 -325 -67 -215 -64 -197 -64 -355 0 -121 4 -167 22 -240 25 -100 57 -186 84 -227 10 -14 18 -30 18 -35 0 -13 52 -85 105 -147 41 -49 79 -83 187 -172 24 -19 112 -65 171 -88 26 -10 47 -22 48 -25 7 -57 32 -97 68 -106 44 -11 40 -1 -19 44 -19 15 -22 22 -13 32 9 9 30 9 95 -4 46 -9 135 -21 198 -27 63 -6 130 -16 148 -21 18 -6 38 -8 45 -5 7 3 3 7 -10 11 -19 6 -20 9 -8 21 7 8 29 14 49 14 19 0 74 14 123 31 135 48 124 49 167 -19 21 -33 46 -68 57 -78 26 -23 25 -64 -1 -64 -11 0 -20 5 -20 11 0 20 -64 69 -90 69 -14 -1 -48 -9 -76 -18 l-50 -18 1 -54 c2 -75 -1 -80 -38 -73 -45 8 -55 19 -59 61 l-3 37 -55 -3 c-30 -1 -78 -12 -107 -23 l-51 -21 -94 37 c-51 21 -97 41 -102 46 -5 4 -18 4 -28 -2 -10 -6 -28 -7 -38 -4 -16 5 -20 2 -20 -18 0 -23 5 -26 73 -37 103 -16 100 -15 94 -57 -9 -52 -28 -69 -64 -55 -15 6 -47 13 -71 15 -36 4 -43 3 -40 -11 2 -9 12 -18 23 -20 115 -18 125 -22 125 -54 0 -48 -22 -57 -94 -42 -79 17 -96 17 -96 0 0 -15 176 -53 202 -44 14 6 48 133 48 181 0 69 61 70 91 1 10 -24 23 -44 29 -44 6 0 8 -19 4 -54 -6 -48 -4 -55 17 -70 27 -18 138 -22 170 -6 17 10 18 18 13 80 l-7 70 51 0 c51 0 51 0 62 -39 14 -54 44 -90 61 -74 10 10 9 21 -6 53 -22 48 -15 58 48 76 23 7 52 15 64 19 22 7 23 5 37 -57 6 -27 29 -37 41 -18 3 5 -1 23 -10 39 -23 45 -19 61 13 61 21 0 34 -11 60 -50 17 -27 32 -57 32 -65 0 -15 -68 -51 -192 -99 -67 -26 -94 -33 -258 -62 -95 -17 -371 -21 -412 -5 -13 5 -47 12 -74 14 -28 3 -70 13 -94 21 -25 8 -65 20 -90 26 -25 6 -54 15 -65 19 -11 5 -51 21 -90 37 -80 32 -198 101 -265 153 -101 79 -188 157 -189 167 -1 5 -17 26 -37 45 -43 41 -169 224 -202 294 -34 72 -91 221 -109 285 -40 144 -59 361 -43 481 24 181 39 261 54 284 8 11 17 36 21 55 17 78 149 340 200 396 5 7 21 27 35 45 143 188 405 371 640 446 120 38 182 53 245 60 28 3 52 7 54 9 10 9 372 3 427 -7z m44 -501 c121 -40 167 -63 265 -127 61 -41 214 -186 251 -239 23 -33 105 -199 109 -222 2 -13 11 -44 19 -69 38 -116 39 -323 4 -475 -13 -59 -39 -127 -75 -195 -70 -138 -84 -155 -123 -146 -23 5 -30 3 -30 -9 0 -9 1 -17 1 -18 1 -2 -6 -20 -15 -41 -17 -41 -34 -58 -106 -109 -25 -17 -47 -35 -50 -38 -11 -15 -73 -41 -85 -36 -7 2 -26 26 -41 53 -15 26 -38 61 -51 76 -13 16 -21 32 -18 37 6 10 -35 129 -72 205 -25 52 -78 141 -183 305 -125 196 -142 232 -102 214 38 -17 103 -16 122 1 58 52 13 171 -110 295 -28 27 -50 51 -50 54 0 3 9 20 20 38 20 34 29 128 11 128 -10 0 -21 -35 -21 -71 0 -14 -11 -38 -25 -53 -14 -15 -25 -29 -25 -32 0 -3 29 -38 66 -77 58 -64 132 -167 119 -167 -2 0 0 -12 5 -26 12 -30 -1 -60 -30 -69 -11 -3 -51 4 -90 16 -38 13 -73 20 -76 16 -11 -11 38 -94 180 -312 149 -227 234 -385 206 -385 -11 0 -13 3 -89 106 -61 82 -164 189 -204 211 -40 22 -55 16 -62 -26 -6 -34 -2 -46 27 -90 18 -28 56 -85 83 -128 56 -87 160 -194 206 -214 24 -9 39 -10 61 -1 26 9 30 8 45 -16 9 -15 29 -43 44 -63 17 -21 25 -40 20 -48 -13 -20 -136 -61 -250 -84 -91 -18 -115 -19 -185 -10 -211 29 -304 47 -346 68 -25 12 -56 26 -70 30 -78 24 -315 230 -361 315 -11 19 -33 60 -50 90 -97 170 -135 424 -94 615 9 39 20 89 25 111 13 59 65 167 118 248 56 84 184 216 237 245 22 12 58 33 80 46 60 36 182 82 250 94 96 17 112 18 265 16 136 -2 151 -4 250 -37z m-264 -1219 c75 -68 243 -270 273 -327 16 -30 7 -54 -19 -50 -34 5 -125 90 -181 167 -30 41 -66 88 -80 105 -45 54 -73 157 -39 144 4 -2 25 -19 46 -39z m659 -419 c3 -5 3 -36 -1 -68 -5 -51 -10 -61 -40 -81 -19 -13 -34 -32 -34 -41 0 -10 -4 -20 -9 -22 -5 -1 -13 -16 -17 -33 -7 -28 -6 -29 10 -16 9 8 24 31 33 50 8 20 17 31 20 24 7 -18 -38 -103 -54 -103 -16 0 -37 19 -41 38 -1 7 -18 35 -37 62 -19 27 -35 54 -35 59 0 5 21 20 47 33 25 13 67 42 92 65 49 45 56 49 66 33z m100 -197 c30 -31 35 -42 35 -85 0 -83 -32 -117 -95 -99 -37 10 -49 3 -39 -23 7 -18 58 -22 98 -6 21 7 26 6 31 -10 8 -26 -10 -57 -45 -75 -44 -23 -56 -19 -73 23 -8 20 -29 54 -46 76 -32 40 -38 60 -21 71 10 6 21 29 66 133 18 43 44 41 89 -5z m-331 -109 c9 -3 16 -15 16 -26 0 -15 -5 -18 -21 -13 -15 5 -19 4 -14 -5 4 -6 17 -9 30 -6 18 5 25 1 30 -15 9 -28 -9 -44 -64 -57 -52 -13 -69 -7 -77 23 -9 37 -1 59 26 66 14 4 21 7 16 8 -13 2 15 31 29 31 8 0 20 -3 29 -6z m-275 -73 c8 -5 11 -16 7 -26 -5 -14 -13 -16 -44 -10 -45 8 -52 12 -52 31 0 16 65 20 89 5z m-63 -57 c30 -8 52 -20 49 -25 -4 -5 5 -9 19 -9 14 0 26 -5 26 -11 0 -5 -4 -7 -10 -4 -5 3 -34 6 -62 6 -73 0 -88 6 -88 35 0 28 -2 28 66 8z m88 -80 c19 -49 -1 -80 -54 -84 -42 -4 -49 -1 -66 25 -16 24 -15 27 1 45 26 29 109 39 119 14z m603 -16 c12 -17 11 -110 -2 -115 -11 -3 -55 68 -55 88 0 11 28 38 41 39 4 0 11 -6 16 -12z"/> <path d="M1360 2806 c-5 -13 -12 -41 -15 -62 -12 -72 -29 -134 -37 -134 -4 0 -19 19 -34 43 -14 23 -39 61 -55 84 -16 23 -29 46 -29 51 0 13 -39 22 -46 11 -10 -17 150 -279 171 -279 16 0 44 57 38 78 -2 11 0 23 6 26 6 4 11 22 11 40 0 18 9 59 20 91 11 31 17 61 14 66 -10 17 -35 9 -44 -15z"/> <path d="M1472 2813 c2 -12 13 -18 34 -19 54 -1 56 -6 52 -128 -3 -109 -3 -111 20 -114 21 -3 22 0 24 75 1 43 1 91 0 107 -3 39 14 56 58 56 43 0 54 8 39 27 -8 9 -42 13 -121 13 -99 0 -109 -2 -106 -17z"/> <path d="M903 2710 c-29 -14 -53 -30 -53 -36 0 -5 11 -34 25 -62 14 -29 25 -55 25 -58 0 -21 55 -124 66 -124 17 0 18 36 2 80 -10 30 -9 35 12 52 13 11 36 22 50 25 58 11 72 94 22 134 -33 25 -80 22 -149 -11z m135 -48 c-3 -28 -57 -72 -87 -72 -16 0 -51 47 -51 69 0 11 51 37 85 44 34 6 57 -11 53 -41z"/> <path d="M2004 2688 c-42 -80 -104 -206 -104 -211 0 -10 132 -67 156 -67 41 0 23 23 -34 45 -28 11 -54 25 -56 32 -3 7 15 53 39 103 25 49 45 98 45 110 0 31 -28 24 -46 -12z"/> <path d="M2210 2605 c0 -8 9 -19 20 -25 11 -6 24 -19 30 -30 12 -23 -1 -45 -84 -143 -44 -53 -47 -60 -33 -74 21 -21 30 -13 108 93 34 46 67 84 72 84 6 0 21 -10 33 -21 24 -22 54 -20 54 3 0 7 -19 24 -42 38 -22 14 -46 30 -52 35 -19 18 -83 55 -95 55 -6 0 -11 -7 -11 -15z"/> <path d="M1694 2555 c-4 -9 -2 -21 4 -27 15 -15 44 -1 40 19 -4 23 -36 29 -44 8z"/> <path d="M1383 2553 c-19 -7 -16 -53 2 -53 13 0 35 36 35 56 0 5 -21 4 -37 -3z"/> <path d="M570 2503 c-25 -7 -70 -74 -70 -104 0 -28 39 -69 66 -69 7 0 40 15 74 32 47 25 64 30 78 22 30 -19 26 -58 -9 -88 -27 -23 -37 -26 -75 -20 -36 5 -44 3 -44 -10 0 -19 30 -36 65 -36 27 0 68 22 99 53 41 42 36 115 -10 136 -34 15 -36 15 -108 -19 -35 -17 -71 -28 -80 -24 -22 8 -20 36 5 68 16 20 29 26 58 26 44 0 55 8 40 27 -11 12 -57 16 -89 6z"/> <path d="M2410 2368 c-31 -29 -75 -70 -98 -91 l-42 -38 36 -45 c47 -57 81 -80 122 -82 74 -5 172 84 172 154 0 27 -11 46 -52 91 -29 32 -59 59 -67 61 -9 1 -41 -22 -71 -50z m106 -30 c39 -45 49 -75 33 -105 -19 -35 -86 -83 -116 -83 -30 0 -103 58 -103 83 0 9 3 17 8 17 4 0 36 25 70 55 35 30 69 55 76 55 7 0 21 -10 32 -22z"/> <path d="M365 2291 c-7 -13 13 -30 84 -70 34 -19 61 -40 61 -46 0 -8 -36 -14 -112 -18 -76 -4 -116 -10 -125 -20 -17 -17 -8 -25 116 -102 44 -27 81 -53 81 -57 0 -12 28 -10 35 2 8 13 -9 36 -40 53 -12 6 -41 22 -64 35 -22 12 -41 29 -41 37 0 17 13 19 122 15 42 -1 86 1 97 5 30 9 26 41 -6 61 -16 10 -60 39 -100 66 -70 47 -96 57 -108 39z"/> <path d="M2454 2005 c-4 -9 -2 -21 4 -27 15 -15 44 -1 40 19 -4 23 -36 29 -44 8z"/> <path d="M233 1965 c-38 -16 -83 -80 -83 -118 0 -40 36 -104 68 -120 109 -56 232 2 232 109 0 38 -5 49 -41 84 -37 36 -90 60 -129 60 -8 -1 -29 -7 -47 -15z m98 -37 c67 -23 95 -72 73 -125 -25 -60 -91 -81 -154 -48 -60 31 -77 91 -39 139 35 44 66 53 120 34z"/> <path d="M110 1610 c0 -14 7 -20 23 -21 12 -1 58 -3 102 -6 149 -9 150 -9 150 7 0 11 -24 18 -100 27 -150 18 -175 17 -175 -7z"/> <path d="M2666 1571 c-4 -6 -5 -24 -1 -39 5 -23 1 -31 -18 -41 -20 -11 -45 -18 -70 -20 -22 -2 4 -26 39 -36 38 -10 39 -12 44 -60 l5 -50 37 39 37 38 45 -15 c51 -18 66 -9 35 19 -40 36 -42 50 -8 89 37 41 33 52 -12 36 -50 -17 -67 -13 -98 21 -19 21 -30 27 -35 19z m49 -81 c3 -5 15 -10 26 -10 20 0 23 -8 13 -34 -3 -8 -12 -12 -20 -9 -8 3 -14 1 -14 -5 0 -24 -30 -19 -43 7 -13 26 -13 31 2 44 19 19 28 20 36 7z"/> <path d="M104 1400 c1 -60 5 -113 9 -116 3 -4 13 -4 22 0 12 4 14 14 10 39 -4 22 -2 37 7 45 7 6 59 14 115 18 106 7 130 14 118 34 -5 8 -40 11 -114 9 -59 -1 -113 1 -119 5 -7 4 -12 23 -12 42 0 27 -4 34 -19 34 -17 0 -19 -8 -17 -110z"/> <path d="M300 1220 c-8 -5 -26 -10 -40 -10 -15 0 -30 -4 -35 -9 -6 -5 -26 -11 -45 -13 -27 -3 -36 -9 -38 -26 -4 -29 15 -29 108 3 87 30 111 31 139 8 33 -28 38 -76 10 -102 -22 -20 -123 -56 -179 -63 -15 -2 -26 -11 -28 -22 -4 -16 1 -18 40 -13 23 3 50 8 58 11 8 3 34 10 57 16 23 6 56 22 73 36 25 21 30 33 30 68 0 87 -89 156 -150 116z"/> <path d="M470 983 c0 -11 14 -39 30 -61 17 -23 30 -46 30 -51 0 -10 -112 -87 -167 -115 -32 -16 -43 -39 -23 -51 5 -3 35 11 67 31 107 69 164 108 169 116 4 7 -14 47 -27 58 -3 3 -12 18 -20 34 -8 16 -24 36 -36 44 -21 13 -23 13 -23 -5z"/> <path d="M569 740 c-48 -14 -109 -95 -109 -145 0 -66 69 -135 134 -135 75 0 156 73 156 141 0 102 -86 168 -181 139z m108 -45 c75 -53 21 -187 -81 -197 -51 -5 -96 34 -96 82 0 37 31 92 63 115 27 19 86 19 114 0z"/> <path d="M815 525 c-14 -13 -25 -33 -25 -45 0 -27 41 -89 79 -120 36 -29 38 -40 13 -63 -24 -22 -38 -21 -73 4 -21 15 -29 29 -29 50 0 31 -24 49 -40 33 -20 -20 8 -79 52 -107 52 -33 78 -34 116 -2 39 33 33 66 -25 126 -35 36 -44 52 -41 74 4 39 30 53 62 35 43 -22 67 -51 64 -73 -3 -27 9 -47 28 -47 10 0 14 12 14 38 0 30 -7 45 -32 69 -64 60 -122 70 -163 28z"/> <path d="M1680 451 c0 -5 14 -11 31 -15 45 -9 61 -7 54 4 -4 6 -10 8 -15 5 -5 -3 -11 -1 -15 5 -8 12 -55 13 -55 1z"/> <path d="M1380 601 c0 -5 17 -16 38 -24 43 -17 136 -12 153 9 6 8 10 14 8 14 -2 0 -30 -4 -63 -10 -46 -7 -64 -6 -87 5 -32 17 -49 19 -49 6z"/> </g> </svg> 